<?xml version="1.0" encoding="utf-8"?>
<!-- Generator: Adobe Illustrator 21.1.0, SVG Export Plug-In . SVG Version: 6.00 Build 0)  -->
<svg version="1.1" id="Layer_1" xmlns="http://www.w3.org/2000/svg" xmlns:xlink="http://www.w3.org/1999/xlink" x="0px" y="0px"
	 viewBox="0 0 399 66" style="enable-background:new 0 0 399 66;" xml:space="preserve">
<style type="text/css">
	.st0{clip-path:url(#SVGID_2_);fill:#404041;}
	.st1{clip-path:url(#SVGID_2_);fill:#C4D600;}
	.st2{clip-path:url(#SVGID_2_);fill:#E8EDA5;}
	.st3{fill:#404041;}
	.st4{font-family:'Helvetica';}
	.st5{font-size:13.7671px;}
</style>
<g>
	<defs>
		<rect id="SVGID_1_" x="2.6" y="3.4" width="400" height="61"/>
	</defs>
	<clipPath id="SVGID_2_">
		<use xlink:href="#SVGID_1_"  style="overflow:visible;"/>
	</clipPath>
	<path class="st0" d="M70,25.9c-4.8,0-7.9,4-9.2,8.9l-4.4,16.3h-8l11-41h4c2.7,0,3.6,1.4,2.9,4l-2.6,9.5c5.4-4.7,10.7-6,16.1-3.9
		c4,1.6,5,5.9,2.9,12.9l-5,18.5h-8l4.4-16.3C75.7,29.4,74.6,25.9,70,25.9"/>
	<path class="st0" d="M97.1,10.1c2.7,0,3.6,1.3,2.8,3.9l-0.6,2.4h-8l1.7-6.3H97.1z M94.6,19.2c2.6,0,3.5,1.3,2.8,3.9l-7.5,28h-8
		l8.5-31.9H94.6z"/>
	<path class="st0" d="M120,35.4c1.8-6.5,0.4-9.7-4.2-9.7s-7.7,3.2-9.4,9.7c-1.5,6.2-0.1,9.2,4.2,9.2C115,44.6,118.1,41.6,120,35.4
		 M98.2,35.2c2.8-10.6,9.2-15.9,19.2-16.1c10-0.1,13.7,4.6,11.1,14.2l-5.1,18.9c-2.2,8-8.3,12.1-18.5,12.2c-7.2,0-10.9-3.4-11-10.1
		h8.9c-0.1,2.3,1.5,3.4,4.8,3.4c4.2,0,7.1-2.5,8.4-7.4c0,0,0,0.1,0.9-3.3c-2.9,3.1-6.4,4.7-10.4,4.7C98,51.7,95.3,46.1,98.2,35.2"/>
	<path class="st0" d="M149.1,25.9c-4.8,0-7.9,4-9.2,8.9l-4.4,16.3h-8l11-41h4c2.7,0,3.6,1.4,2.9,4l-2.6,9.5c5.4-4.7,10.7-6,16.1-3.9
		c4,1.6,5,5.9,2.9,12.9l-5,18.5h-8l4.4-16.3C154.8,29.4,153.7,25.9,149.1,25.9"/>
	<path class="st0" d="M179,14l-9.9,37.1h-8l11-41h4.2C178.3,10.1,179.6,11.9,179,14"/>
	<path class="st0" d="M195.5,38l0.8-3c-2.1,0.8-4.4,1.4-6.9,1.9c-3.4,0.6-5.4,2.1-6,4.5c-0.5,2.5,0.5,3.7,3,3.7
		C190.9,45.2,194.3,42.5,195.5,38 M188.2,27.5h-8c2.5-5.9,7.5-8.8,14.8-8.8c8.8,0,12.5,2.9,11.1,8.8l-2.9,10.9
		c-2.4,8.8-8.7,12.7-17.5,13.3c-7.8,0.6-12.2-3-10.3-10c2.2-7.7,8.3-9.7,16.6-10.5c3.6-0.4,5.6-1.4,6-3.2c0.3-1.8-1.1-2.7-4.5-2.7
		C190.8,25.3,189,26,188.2,27.5"/>
	<path class="st0" d="M226.7,51.1c-2.6-0.2-3.6-1.4-2.9-4l4.4-16.4c0.7-3.3-0.7-4.9-4.2-4.9c-3.6,0-5.8,1.6-6.8,4.9l-5.5,20.4h-8.1
		l5-18.8c2.4-9.1,8.2-13.6,17.3-13.6c9.1,0,12.4,4.5,9.9,13.6l-5,18.8H226.7z"/>
	<path class="st0" d="M246.7,35c-1.8,6.5-0.5,9.7,4.1,9.7c4.6,0,7.8-3.3,9.5-9.7c1.5-6.2,0-9.2-4.3-9.2
		C251.6,25.9,248.6,28.9,246.7,35 M273.8,14.1l-6.2,23.2c-2.6,9.6-8.9,14.4-18.8,14.3c-9.8-0.2-13.4-5.6-10.5-16.2
		c2.9-10.9,8.6-16.4,17.2-16.7c4,0,6.6,1.6,7.8,4.9l3.6-13.6h4C273.1,10.1,274.4,11.9,273.8,14.1"/>
	<path class="st1" d="M282.7,10.1h4.3l-4.1,15.3h16.8l4.1-15.3h8.5l-11,41h-8.5l4.9-18.2h-16.8L276,51.1h-8.5l9.8-36.6
		C278,12.1,280.4,10.1,282.7,10.1"/>
	<path class="st1" d="M320.4,10.1h4.2l-6.8,25.3c-1.6,6,0.2,9,5.5,9c5.2,0.1,8.7-3,10.3-9l6.8-25.3h8.3l-7,26.3
		c-2.7,10.1-10,15.3-20.3,15.3c-10.5,0-15-4.9-12.2-15.3l5.9-21.9C315.6,12.2,318.1,10.1,320.4,10.1"/>
	<path class="st1" d="M368.2,17.2h-9.3l-2.4,8.8h9.4c3.3,0,6.3-1,7.2-4.5C374.1,18.1,372,17.2,368.2,17.2 M364.4,32.9h-9.7
		l-2.9,10.7h9.8c4.2,0,7-1.2,8.1-5.3C370.9,34.1,368.7,32.9,364.4,32.9 M360.2,51.1h-18.6l9.8-36.6c0.6-2.4,3.1-4.4,5.4-4.4h15.1
		c7.7,0,12,3.1,10.1,10.4c-1.2,4.3-3.6,6.9-7.2,8.5c3.6,1.6,5.3,4.2,3.8,9.7C376.3,47.1,369.1,51.1,360.2,51.1"/>
	<path class="st0" d="M6,41.4c15.8,12,38.6-0.6,38.6-0.6C49.9,20.9,25.1,3.4,25.1,3.4H25c0,0-24.7,17.5-19.4,37.3L6,41.4z"/>
	<path class="st2" d="M25.1,54.9c-0.1,0-2.1-0.1-2.1-0.2L24.6,9c0-0.4,0.4-0.6,0.5-0.6c0.1,0,0.5,0.1,0.5,0.6l1.6,45.6
		C27.2,54.8,25.2,54.9,25.1,54.9"/>
	<path class="st1" d="M8.8,31.9c2.8,2.8,6.5,4.8,10.2,6c8.1,2.5,16.1-0.7,22.3-6c1.7-1.4-0.7-3.8-2.4-2.4c-5.8,4.9-12.7,7.2-20,4.7
		c-2.8-0.9-5.6-2.6-7.7-4.7C9.7,27.9,7.3,30.3,8.8,31.9"/>
	<path class="st1" d="M14.4,24.8c1.9,1.9,4.4,3.2,6.9,4c5.3,1.6,10.4-0.6,14.5-4c1.7-1.4-0.7-3.8-2.4-2.4c-4.9,4.1-11.9,4.8-16.6,0
		C15.2,20.8,12.8,23.2,14.4,24.8"/>
	<path class="st1" d="M19.3,17.4c3.3,3.3,8.1,2.8,11.5,0c1.7-1.4-0.7-3.8-2.4-2.4c-2,1.7-4.8,1.9-6.7,0
		C20.2,13.4,17.8,15.8,19.3,17.4"/>
	<path class="st1" d="M3.1,39c3.6,3.7,8.5,6.3,13.4,7.9C27.6,50.4,38.5,46.3,47,39c1.7-1.4-0.7-3.8-2.4-2.4
		c-7.9,6.8-17.6,10.1-27.8,6.9c-4.1-1.3-8.3-3.7-11.3-6.9C4,35,1.6,37.4,3.1,39"/>
</g>
<text transform="matrix(1 0 0 1 384.4814 19.7109)" class="st3 st4 st5">™</text>
</svg>
